<svg width="64" height="16" viewBox="0 0 64 16" fill="none" xmlns="http://www.w3.org/2000/svg">
<path d="M49.4786 -0.664307H43.2881V1.83569H49.4786V-0.664307Z" fill="white"/>
<path d="M50.7529 7.30347H44.5624V9.80347H50.7529V7.30347Z" fill="white"/>
<rect x="17.7725" y="12.3037" width="8" height="4" fill="white"/>
<path d="M36.7334 12.8394H30.543V15.3394H36.7334V12.8394Z" fill="white"/>
<path d="M37.0967 -0.664307H30.9062V1.83569H37.0967V-0.664307Z" fill="white"/>
<path d="M29.4503 -0.664307H23.2598V1.83569H29.4503V-0.664307Z" fill="white"/>
<path d="M0.0568978 0.272321C0.0265517 0.183036 0.00758697 0.0974643 0 0.015625C0 -0.12575 0.0531052 -0.255946 0.159314 -0.375C0.326214 -0.568446 0.538632 -0.665179 0.796569 -0.665179H3.28869C3.58456 -0.665179 3.85767 -0.564732 4.10802 -0.363839C4.35837 -0.162946 4.53665 0.0900358 4.64286 0.395089L7.64706 9.23438L10.4237 0.395089C10.6437 -0.304321 11.0951 -0.657732 11.7778 -0.665179H13.8717C14.5544 -0.665179 15.0058 -0.31175 15.2258 0.395089L18.0025 9.23438L21.0067 0.395089C21.1128 0.0900358 21.2912 -0.162946 21.5414 -0.363839C21.7919 -0.564732 22.065 -0.665179 22.3607 -0.665179H24.8529C25.1184 -0.665179 25.3309 -0.568446 25.4902 -0.375C25.5963 -0.255946 25.6495 -0.12575 25.6495 0.015625C25.6495 0.0974643 25.6306 0.183036 25.5925 0.272321L20.5174 14.2009C20.2367 14.9598 19.6904 15.3393 18.8788 15.3393H17.2286C16.3866 15.3393 15.8441 14.9598 15.6014 14.2009L12.8248 5.60714L10.0481 14.2009C9.79779 14.9598 9.25536 15.3393 8.42087 15.3393H6.75945C5.95529 15.3393 5.41288 14.9598 5.13218 14.2009L0.0568978 0.272321ZM22.3722 13.6875C20.8169 12.3482 20.0393 10.2314 20.0393 7.33705C20.0393 4.44271 20.8169 2.32961 22.3722 0.997768C23.9275 -0.334071 26.2034 -1 29.1999 -1C32.2041 -1 34.48 -0.334071 36.0277 0.997768C37.5829 2.32961 38.3606 4.44271 38.3606 7.33705C38.3606 10.2314 37.5829 12.3482 36.0277 13.6875C34.48 15.0193 32.2041 15.6854 29.1999 15.6854C26.2034 15.6854 23.9275 15.0193 22.3722 13.6875ZM25.4789 3.35268C24.7126 4.24554 24.3295 5.57737 24.3295 7.34821C24.3295 9.11161 24.7126 10.4397 25.4789 11.3326C26.2527 12.218 27.493 12.6607 29.1999 12.6607C30.9145 12.6607 32.1548 12.218 32.921 11.3326C33.6873 10.4397 34.0704 9.11161 34.0704 7.34821C34.0704 5.57737 33.6873 4.24554 32.921 3.35268C32.1548 2.45982 30.9145 2.01339 29.1999 2.01339C27.493 2.01339 26.2527 2.45982 25.4789 3.35268ZM34.8557 14.2902V0.395089C34.8557 0.104911 34.958 -0.144339 35.1628 -0.352679C35.3676 -0.561018 35.618 -0.665179 35.9139 -0.665179H45.3019C47.0392 -0.665179 48.4618 -0.207589 49.5693 0.707589C50.6845 1.62277 51.2422 2.85789 51.2422 4.41295C51.2422 6.57812 49.812 7.93602 46.952 8.48661C47.3996 8.65773 47.8169 8.94048 48.2038 9.33482C48.5983 9.72916 49.0459 10.3058 49.5466 11.0647L51.6176 14.2902C51.7466 14.5059 51.811 14.692 51.811 14.8482C51.811 14.9152 51.7997 14.9784 51.777 15.0379C51.701 15.2389 51.5153 15.3393 51.2193 15.3393H48.4882C48.1925 15.3393 47.8739 15.2389 47.5323 15.0379C47.1911 14.8296 46.9293 14.5804 46.7472 14.2902L44.8127 11.3214C44.0238 10.1012 43.0602 9.49107 41.9223 9.49107H39.1457V14.2902C39.1457 14.5804 39.0395 14.8296 38.827 15.0379C38.6222 15.2389 38.3718 15.3393 38.076 15.3393H35.9366C35.6408 15.3393 35.3866 15.2389 35.1743 15.0379C34.9618 14.8296 34.8557 14.5804 34.8557 14.2902ZM39.1457 6.33259H43.9933C44.7672 6.33259 45.4538 6.18005 46.0531 5.875C46.6523 5.56995 46.952 5.08259 46.952 4.41295C46.952 3.7433 46.6523 3.25595 46.0531 2.95089C45.4614 2.64584 44.7748 2.4933 43.9933 2.4933H39.1457V6.33259ZM47.8509 14.2679V0.395089C47.8509 0.104911 47.9573 -0.148071 48.1696 -0.363839C48.382 -0.579607 48.6362 -0.6875 48.9321 -0.6875H51.0714C51.3673 -0.6875 51.6176 -0.579607 51.8225 -0.363839C52.035 -0.148071 52.1411 0.104911 52.1411 0.395089V5.74107H54.5876C55.2553 5.74107 55.8396 5.5625 56.3403 5.20536C56.8484 4.84821 57.3302 4.27157 57.7854 3.47545L59.5491 0.395089C59.9513 -0.319196 60.4975 -0.680054 61.1878 -0.6875H63.8165C64.1124 -0.6875 64.2868 -0.583339 64.34 -0.375C64.3551 -0.322911 64.3627 -0.270839 64.3627 -0.21875C64.3627 -0.047625 64.2983 0.157 64.1694 0.395089L61.6999 4.78125C61.3434 5.42112 60.9412 5.94941 60.4937 6.36607C60.0536 6.78273 59.4772 7.07664 58.764 7.24777C59.2647 7.35193 59.7767 7.66071 60.3003 8.17411C60.8313 8.6875 61.2979 9.24554 61.6999 9.84821L64.5448 14.2902C64.6737 14.5059 64.7382 14.692 64.7382 14.8482C64.7382 14.9152 64.7269 14.9784 64.7041 15.0379C64.6282 15.2389 64.4425 15.3393 64.1464 15.3393H61.5406C61.2448 15.3393 60.9261 15.2389 60.5847 15.0379C60.2433 14.8296 59.9779 14.5804 59.7882 14.2902L57.7854 11.1763C57.3074 10.4174 56.8257 9.84821 56.3403 9.46875C55.8547 9.08184 55.2704 8.88839 54.5876 8.88839H52.1411V14.3125C52.1411 14.6027 52.035 14.8482 51.8225 15.0491C51.6176 15.2425 51.3673 15.3393 51.0714 15.3393H48.9321C48.6362 15.3393 48.382 15.2352 48.1696 15.0268C47.9573 14.8111 47.8509 14.558 47.8509 14.2679Z" fill="white"/>
</svg>
